<svg xmlns="http://www.w3.org/2000/svg" width="768" height="768" version="1" viewBox="0 0 576 576"><path d="M370.7 38.6c-.1.1-4.2.4-9.2.8-4.9.3-10.1.8-11.5 1.1-1.4.3-3.8.7-5.5 1-2.5.3-10.4 2.1-18 4.1-1.1.3-2.4.6-3 .7-.5.2-1.5.5-2 .9-.6.3-2.7.9-4.8 1.3-2 .4-4 1.1-4.3 1.6-.3.5-.9.7-1.4.4-.5-.3-1.1-.1-1.5.5-.3.5-1.7 1-3 1s-2.6.4-2.9.9c-.3.5-1.8 1.2-3.3 1.6-1.5.3-4.3 1.4-6.3 2.4-4.9 2.4-9.1 1.8-19.8-2.5-9.6-3.9-18.9-7.4-21.2-7.9-.8-.2-1.5-.4-1.5-.5 0-.1-.7-.3-1.5-.5s-4.9-1.2-9-2.3c-4.1-1.1-10.4-2.3-14-2.7-8-1-21-1.3-21-.5 0 .3 4.8 2.1 10.8 4 21.2 6.9 41.5 15.7 51 22.2l4.2 2.9-4.5 3.5c-2.5 1.8-4.7 3.4-5 3.4-1.4 0-14 9.8-19 14.8-14.8 14.7-24.5 25.3-28.7 31.3-6.3 8.8-17 27.2-21.2 36.4-1.5 3.3-3.6 7.7-4.7 9.8-1 2.1-1.9 4.6-1.9 5.5 0 1-.4 2.2-.9 2.7-1 1.1-5.6 16.2-6.5 21-.3 1.6-.7 4.1-1 5.5-.7 3.1-1.5 10.5-2.1 18.5-.2 3.3-.8 8-1.4 10.5-1 4.8-.7 4.5-16.5 16.9-11.7 9.3-23 20.2-32.1 31.2-2.8 3.3-12.8 16.9-14 19-10 17-18.5 34.1-18.5 37.2 0 .7-.4 1.7-.9 2.2-1 1.1-5.8 15.5-6.5 19.8-.3 1.5-.7 3.5-1 4.5-.4 1.5-.8 3.4-2.1 11.7-.9 5.5-3.5 17.8-3.8 18.2-.6.5-7.6-2.8-12.4-6-2.4-1.5-10.3-7.1-17.5-12.6-13.4-9.9-20.5-16.7-28.8-27.7-2.5-3.2-4.7-6.1-5-6.4-.3-.3-1.6-1.8-2.8-3.4-6.8-8.8 3.7 12.4 11.9 24 3.4 4.9 6.7 9.3 7.3 9.9.6.5 2.2 2.3 3.5 4 9.7 12.6 25.8 28.4 36.1 35.3 2.9 2 5.8 4 6.2 4.3.5.3 1 2.5 1.3 5 .9 9.7 3 23.8 5 33.9 1 5 4.8 19.1 6 22.2.8 2.1 1.3 3.8 1.1 3.8-1.6 0 12.1 28.9 15.9 33.5l2.5 3-1.5-4.3c-.8-2.3-1.2-4.2-.8-4.2.3 0 .1-.6-.5-1.3-.6-.6-1-1.4-1-1.7 0-.3-.6-2.5-1.3-5-1.5-5.4-1.1-3.6-3.7-15-1.2-5.2-2.4-11.1-2.7-13-.9-4.9-1.6-38-.9-40.7l.6-2.2 9.2 3.3c5 1.9 12.3 4.6 16.1 6.1 6.5 2.4 15.7 5.6 18 6.1.6.1 3.7.9 7 1.7 3.3.8 8.3 1.9 11 2.3 2.8.4 5.7.9 6.5 1 10 2.1 47.2 2.1 58-.1 1.3-.2 4.2-.7 6.5-1 2.2-.4 5.4-1 7.2-1.5 1.7-.4 3.4-.6 3.6-.3.3.2 1.4 0 2.4-.5 1-.6 3.8-1.3 6.1-1.7 2.3-.3 6.6-1.4 9.6-2.5 5.3-1.8 6.7-2.4 16.6-6.8 11.3-5 11.8-5 24.2.1 11.5 4.7 20.9 8 26.3 9.3 1.7.4 3.5.8 4 1 1.4.4 16.3 3.4 19.4 3.8 14.7 2.4 48.4 2.4 60.1.1 1.4-.3 4.1-.7 6-1 12.4-1.7 25.2-5.2 38.6-10.6 7.1-2.8 14.4-5.4 16.2-5.6l3.2-.5.1 5.9c.2 13.8.2 17.2-.5 24.8-.4 4.4-.9 8.9-1.1 10-.3 1.1-.7 3.8-1 6-1.4 10.3-6.1 26.4-12 41-1.3 3.3-1.3 3.6-.1 2 .9-1.1 1.9-2.5 2.4-3 .4-.6 1.7-2.6 2.8-4.5 1-1.9 2.2-3.7 2.5-4 1.1-.9 10.9-22 10.9-23.5 0-.7.4-1.6.9-1.9.5-.3 1.1-1.6 1.4-2.8.3-1.3 1.7-6.3 3.2-11.2 4.5-15 6.8-27.6 8-42.6.6-7.3.7-7.6 4.9-11.5 2.4-2.2 7.4-6.2 11.2-9 11.4-8.4 21.4-18.3 36.2-36 3.8-4.4 16.2-23.2 16.2-24.4 0-.6.3-1.1.8-1.1 1 0 7.2-12.3 7.8-15.5.7-3.7-1-3-3.2 1.3-1 2-2.1 3.9-2.5 4.2-.3.3-1.5 2.2-2.8 4.3-1.3 2.1-2.8 4.3-3.5 5-.6.6-1.9 2.2-2.7 3.4-8.3 12.1-38.5 36.9-53.4 43.9-3.8 1.8-7.1 3.1-7.3 3-.1-.2-.5-1.3-.7-2.5-2.2-9.6-3.5-16.3-3.9-19.6-.8-6-2-12-2.8-14.5-.3-.8-1.3-4.2-2.3-7.5-5.1-16.7-15.2-38.4-24.5-52.3-2.8-4.1-5-7.9-5-8.3 0-.5-.3-.9-.8-.9-.4 0-2.6-2.6-4.9-5.8-7.8-10.5-34.1-36.2-37.2-36.2-.6 0-1.1-.3-1.1-.8 0-.4-1.3-1.6-3-2.7-4.3-2.9-4.5-3.6-7.6-28.5-.4-3.2-1.7-11.1-2.8-16.7-4.6-23.3-22.5-60.1-39.8-82-6.6-8.3-20.3-22.3-28.3-28.8-2.7-2.2-5.6-4.7-6.5-5.5-.8-.8-2.9-2.4-4.5-3.4-1.7-1-3.7-2.5-4.5-3.2-.8-.8-2.8-2.4-4.4-3.7l-3-2.4 5-3.6c9.7-7.1 34.3-17.9 45.6-20.1 7.5-1.4 20.8-5.8 20.8-6.9 0-.3-6-.3-6.3-.1zM291 83.7c0 .5 3.3 4.2 7.3 8.4 15.5 16.2 24.8 28.3 31.6 41.2 1.5 2.8 3.3 6.1 3.9 7.2 4.8 8.2 15.8 38.7 14.6 40.6-.3.5 0 .9.6.9s.9.3.7.7c-.3.5.1 3.7.9 7.3 1.5 7.3 2.1 11 2.9 19.1.5 6 .2 6.3-5.2 4.5-2.7-.9-3.6-1.1-16.9-4-6.2-1.4-16.3-3.1-22.5-3.8-11.5-1.4-37.7-1.6-45.6-.4-2.4.3-6.2.9-8.5 1.2-2.4.3-6.8 1.1-9.8 1.9-3 .8-6.6 1.6-8 1.9-1.4.2-3.2.7-4 1-.8.3-3.7 1-6.3 1.5l-4.8.9.6-4.7c.4-2.5.9-5.7 1.1-7.1.2-1.4.6-4.5 1-7 .3-2.5.7-5.2.9-6 .3-.8.7-3.3 1.1-5.5.3-2.2.8-4.3 1.1-4.8.2-.4.7-1.9.9-3.4.7-3.8 7.5-24.7 8.3-25.3.3-.3 1.7-2.8 2.9-5.5 2.9-6 12.7-22.8 14.4-24.7.7-.7 2.5-3.1 3.9-5.3 6.6-10 22.5-27 28.2-30.2 2.5-1.4 4.7-1.7 4.7-.6zm17.5 174.6c1.1.3 4 .8 6.5 1.1 2.5.3 6 1 7.8 1.5 1.8.5 3.5 1 3.7 1 4.3-.1 20.6 5.4 21.6 7.2 1.3 2.6-2.5 14.2-9.8 29.9-1.4 3-2.6 5.9-2.7 6.5-.1.5-1.3 3-2.6 5.5-1.2 2.5-2.1 4.6-1.9 4.7.8.4-13.6 21.9-20 29.8-7 8.8-14.8 16.8-19.9 20.4-3.2 2.2-3.3 2.2-6.1.4-9.5-5.9-36.1-36.1-36.1-40.7 0-.9-.4-1.6-.8-1.6-.8 0-4.5-7.4-9.1-18.3-4.8-11.2-12.1-33-12.1-36.1 0-2.7.5-3.5 2.3-3.9 1.2-.3 5.8-1.5 10.2-2.7 4.4-1.2 9.1-2.4 10.5-2.6 1.4-.2 3.4-.6 4.5-.8 1.1-.3 4.7-.8 8-1.1 3.3-.4 6.2-.9 6.4-1.1.5-.5 37.1.3 39.6.9zm-127.2 39c2.7 9.1 12.6 36.6 15 41.2 1.1 2.2 7.6 12.2 14.4 22.2 12.2 17.8 20 26.5 30.1 33.6 1.7 1.2 3.2 2.5 3.2 2.8 0 .6-16.9 8-19.4 8.6-.6.1-2.9.9-5.2 1.7-2.2.8-5.8 1.7-8 2-2.1.3-5 .7-6.4 1-2.7.5-10 1.6-14 2-1.4.2-5.4.7-9 1.1-11 1.4-35 .8-43-1-1.4-.3-3.9-.8-5.7-1.1-1.7-.2-4.3-.8-5.7-1.4-1.4-.5-2.6-.8-2.6-.6 0 .2-2.1-.3-4.7-1.1-2.7-.8-5.8-1.6-7-1.9-1.2-.2-3.5-.9-5-1.6-3-1.2-3.8-1.5-5.2-1.7-1-.1.8-8.3 3.5-16.3 1-2.9 1.9-5.5 1.9-5.8.3-1 1.8-4.6 4.5-10.5 6.3-13.8 9.4-20 10.2-20.3.4-.2.8-.9.8-1.6 0-.7.8-2.1 1.9-3.2 1-1.1 2.4-3.1 3.1-4.4.7-1.3 1.7-2.9 2.1-3.4.5-.6 3.6-4.7 7-9.1 10.5-13.6 32.8-34.5 36.8-34.5.5 0 1.4-.7 2.1-1.5.7-.8 1.5-1.5 1.9-1.5.3 0 1.4 2.8 2.4 6.3zm220.5-.1c5.6 4 11.5 9.3 19.1 17.2 3.1 3.3 6.3 6.7 7.3 7.7 3.1 3.3 13.5 17.4 17.8 24.4 5.2 8.4 13.4 24.9 14 28.3.1.4.8 1.8 1.6 3.2.7 1.4 2.9 7.5 4.8 13.7 2.5 8.3 3.1 11.5 2.2 12.2-3 2.5-16.8 6.4-26.5 7.6-3 .4-6.1.8-7 1-11.5 2.2-39.5 2.2-51.6 0-1.6-.3-4.1-.8-5.4-1-6.4-1.1-14.1-2.8-19.1-4.2-4.8-1.4-22.9-8.1-23.8-8.8-.8-.7 2-4.5 6.5-9.2 4.6-4.8 12.7-13.7 14.9-16.5 5.2-6.6 20.5-29.3 21.9-32.4.9-2.1 2.1-4.7 2.6-5.6 2.8-5.4 11.4-28.7 12.2-33.3.9-4.6 2-7.5 2.9-7.5.5 0 3.1 1.5 5.6 3.2z"/></svg>